<?xml version="1.0" encoding="UTF-8" standalone="no"?>
<svg xmlns="http://www.w3.org/2000/svg" version="1.1" width="750" height="750">
<path d="M 415,140 C 415,80 440,34 463,2 C 425,2 396,21 375,48 C 354,21 325,2 287,2 C 310,34 335,80 335,140 L 335,335 L 140,335 C 80,335 34,310 2,287 C 2,325 21,354 48,375 C 21,396 2,425 2,463 C 34,440 80,415 140,415 L 335,415 L 335,610 C 335,670 310,716 287,748 C 325,748 354,729 375,702 C 396,729 425,748 463,748 C 440,716 415,670 415,610 L 415,415 L 610,415 C 670,415 716,440 748,463 C 748,425 729,396 702,375 C 729,354 748,325 748,287 C 716,310 670,335 610,335 L 415,335 z" fill="#d92828" stroke="#000" stroke-width="4"/>
</svg>
